HIERARCHY
ROOT Hip
{
	OFFSET 0 1.131 0.0052
	CHANNELS 6 Xposition Yposition Zposition Xrotation Yrotation Zrotation
	JOINT Abdomen
	{
		OFFSET 0 -0.047353 -0.05
		CHANNELS 3 Xrotation Zrotation Yrotation
		JOINT Chest
		{
			OFFSET 0 0.132153 0.007439
			CHANNELS 3 Xrotation Zrotation Yrotation
			JOINT Neck
			{
				OFFSET 0 0.3078 0.006161
				CHANNELS 3 Xrotation Zrotation Yrotation
				JOINT Head_comp
				{
					OFFSET 0 0.0884 0.013
					CHANNELS 3 Xrotation Yrotation Zrotation
					End Site
					{
						OFFSET -0 0.156 0.0624
					}
				}
			}
			JOINT Left_Collar
			{
				OFFSET 0.02282 0.250342 0.017193
				CHANNELS 2 Yrotation Zrotation
				JOINT Left_Shoulder
				{
					OFFSET 0.15421 0 0
					CHANNELS 3 Xrotation Yrotation Zrotation
					JOINT Left_Forearm
					{
						OFFSET 0.265212 0 0
						CHANNELS 2 Yrotation Xrotation
						JOINT Left_Hand
						{
							OFFSET 0.27571 0 0
							CHANNELS 2 Zrotation Yrotation
							JOINT L1ProxPhalanx
							{
								OFFSET 0.014142 0.001733 0.014142
								CHANNELS 3 Yrotation Zrotation Xrotation
								JOINT L1MidPhalanx
								{
									OFFSET 0.04 0 0
									CHANNELS 1 Zrotation
									JOINT L1DistPhalanx
									{
										OFFSET 0.035 0 0
										CHANNELS 1 Zrotation
										End Site
										{
											OFFSET 0.029 -0 -0
										}
									}
								}
							}
							JOINT L2ProxPhalanx
							{
								OFFSET 0.0821037 0.001578 0.0219996
								CHANNELS 2 Yrotation Zrotation
								JOINT L2MidPhalanx
								{
									OFFSET 0.04 0 0
									CHANNELS 1 Zrotation
									JOINT L2DistPhalanx
									{
										OFFSET 0.028 0 0
										CHANNELS 1 Zrotation
										End Site
										{
											OFFSET 0.02 -0 -0
										}
									}
								}
							}
							JOINT L3ProxPhalanx
							{
								OFFSET 0.083 0 0
								CHANNELS 2 Yrotation Zrotation
								JOINT L3MidPhalanx
								{
									OFFSET 0.053 0 0
									CHANNELS 1 Zrotation
									JOINT L3DistPhalanx
									{
										OFFSET 0.03 0 0
										CHANNELS 1 Zrotation
										End Site
										{
											OFFSET 0.023 -0 -0
										}
									}
								}
							}
							JOINT L4ProxPhalanx
							{
								OFFSET 0.077274 -0.000761 -0.0207055
								CHANNELS 2 Yrotation Zrotation
								JOINT L4MidPhalanx
								{
									OFFSET 0.05 0 0
									CHANNELS 1 Zrotation
									JOINT L4DistPhalanx
									{
										OFFSET 0.03 0 0
										CHANNELS 1 Zrotation
										End Site
										{
											OFFSET 0.023 -0 -0
										}
									}
								}
							}
							JOINT L5ProxPhalanx
							{
								OFFSET 0.0675499 -0.001644 -0.039
								CHANNELS 2 Yrotation Zrotation
								JOINT L5MidPhalanx
								{
									OFFSET 0.04 0 0
									CHANNELS 1 Zrotation
									JOINT L5DistPhalanx
									{
										OFFSET 0.021 0 0
										CHANNELS 1 Zrotation
										End Site
										{
											OFFSET 0.022 -0 -0
										}
									}
								}
							}
						}
					}
				}
			}
			JOINT Right_Collar
			{
				OFFSET -0.02282 0.250342 0.017193
				CHANNELS 2 Yrotation Zrotation
				JOINT Right_Shoulder
				{
					OFFSET -0.15421 0 0
					CHANNELS 3 Xrotation Yrotation Zrotation
					JOINT Right_Forearm
					{
						OFFSET -0.265212 0 0
						CHANNELS 2 Yrotation Xrotation
						JOINT Right_Hand
						{
							OFFSET -0.27571 3e-006 0
							CHANNELS 2 Zrotation Yrotation
							JOINT R1ProxPhalanx
							{
								OFFSET -0.014142 0.001733 0.014142
								CHANNELS 3 Yrotation Zrotation Xrotation
								JOINT R1MidPhalanx
								{
									OFFSET -0.04 0 0
									CHANNELS 1 Zrotation
									JOINT R1DistPhalanx
									{
										OFFSET -0.035 0 0
										CHANNELS 1 Zrotation
										End Site
										{
											OFFSET -0.029 -0 -0
										}
									}
								}
							}
							JOINT R2ProxPhalanx
							{
								OFFSET -0.0821037 0.001578 0.0219996
								CHANNELS 2 Yrotation Zrotation
								JOINT R2MidPhalanx
								{
									OFFSET -0.04 0 0
									CHANNELS 1 Zrotation
									JOINT R2DistPhalanx
									{
										OFFSET -0.028 0 0
										CHANNELS 1 Zrotation
										End Site
										{
											OFFSET -0.02 -0 -0
										}
									}
								}
							}
							JOINT R3ProxPhalanx
							{
								OFFSET -0.083 0 0
								CHANNELS 2 Yrotation Zrotation
								JOINT R3MidPhalanx
								{
									OFFSET -0.053 0 0
									CHANNELS 1 Zrotation
									JOINT R3DistPhalanx
									{
										OFFSET -0.03 0 0
										CHANNELS 1 Zrotation
										End Site
										{
											OFFSET -0.023 -0 -0
										}
									}
								}
							}
							JOINT R4ProxPhalanx
							{
								OFFSET -0.077274 -0.000761 -0.0207055
								CHANNELS 2 Yrotation Zrotation
								JOINT R4MidPhalanx
								{
									OFFSET -0.05 0 0
									CHANNELS 1 Zrotation
									JOINT R4DistPhalanx
									{
										OFFSET -0.03 0 0
										CHANNELS 1 Zrotation
										End Site
										{
											OFFSET -0.023 -0 -0
										}
									}
								}
							}
							JOINT R5ProxPhalanx
							{
								OFFSET -0.0675499 -0.001644 -0.039
								CHANNELS 2 Yrotation Zrotation
								JOINT R5MidPhalanx
								{
									OFFSET -0.04 0 0
									CHANNELS 1 Zrotation
									JOINT R5DistPhalanx
									{
										OFFSET -0.021 0 0
										CHANNELS 1 Zrotation
										End Site
										{
											OFFSET -0.022 -0 -0
										}
									}
								}
							}
						}
					}
				}
			}
		}
	}
	JOINT Left_Thigh
	{
		OFFSET 0.1118 -0.1612 -0.0442
		CHANNELS 3 Xrotation Zrotation Yrotation
		JOINT Left_Shin
		{
			OFFSET 0 -0.477856 0
			CHANNELS 1 Xrotation
			JOINT Left_Foot
			{
				OFFSET 0 -0.431952 0
				CHANNELS 2 Xrotation Zrotation
				JOINT Left_Toe
				{
					OFFSET 0 -0.0442 0.119
					CHANNELS 1 Xrotation
					End Site
					{
						OFFSET -0 -0 0.07
					}
				}
			}
		}
	}
	JOINT Right_Thigh
	{
		OFFSET -0.1118 -0.1612 -0.0442
		CHANNELS 3 Xrotation Zrotation Yrotation
		JOINT Right_Shin
		{
			OFFSET 0 -0.477856 0
			CHANNELS 1 Xrotation
			JOINT Right_Foot
			{
				OFFSET 0 -0.431952 0
				CHANNELS 2 Xrotation Zrotation
				JOINT Right_Toe
				{
					OFFSET 0 -0.0442 0.119
					CHANNELS 1 Xrotation
					End Site
					{
						OFFSET -0 -0 0.07
					}
				}
			}
		}
	}
}
MOTION
Frames: 5
Frame Time: 0.009975
-0.101338 -0.0601613 0.0530942 7.9574e-013 7.92492e-008 -5.10905e-006 0 -0 0 0 -0 0 0 -0 0 -0.713266 0.291199 -5.41432e-013 7.34778 -34.8947 13.4425 -11.5824 -31.1618 -106.515 -2.08706 -6.7059 -7.73986 -27.5605 -21.5864 106.421 -7.48048 -7.22872 0.359187 -7.00922 -0.766388 -1.05378 4.72541 -4.46271 -1.39298 -3.41729 8.71841 0.0688695 -13.7112 -8.22532 12.9011 1.57409 -20.5968 -30.2417 -7.17571 35.2175 12.7382 11.1172 31.045 105.527 -2.23424 6.33676 7.32681 38.9837 36.1159 101.604 14.666 12.1653 -8.2523 27.8068 9.83342 13.489 -11.7053 25.9121 16.1257 15.7691 -18.2512 19.2437 37.1046 -0.953694 -32.4901 17.9033 52.4499 -34.7027 0.876283 -0.658843 -0.010077 0.0240216 -0.900247 0.658925 0 0.887689 -0.658841 -0.0102081 8.49505e-007 -0.887631 0.658925 0 
-0.101345 -0.0601611 0.0530859 7.89669e-013 7.90725e-008 -5.10905e-006 0 -0 0 0 -0 0 0 -0 0 -0.713265 0.2912 -1.07789e-013 7.34778 -34.8947 13.4425 -11.5824 -31.1618 -106.515 -2.08706 -6.7059 -7.73986 -27.5605 -21.5864 106.421 -7.48048 -7.22872 0.359187 -7.00922 -0.766388 -1.05378 4.72541 -4.46271 -1.39298 -3.41729 8.71841 0.0688695 -13.7112 -8.22532 12.9011 1.57409 -20.5968 -30.2417 -7.15499 35.2252 12.8321 11.1845 31.0418 105.308 -2.18985 6.27697 7.24902 27.0012 55.21 123.661 17.0748 12.5022 -14.8539 51.5661 15.3434 21.2746 -19.0625 47.372 29.5878 25.2062 -29.9356 28.1944 72.3369 -1.11959 -53.6963 1.73243 118.688 -39.35 0.87576 -0.658401 -0.0100642 0.0240216 -0.899724 0.658484 0 0.887166 -0.658399 -0.0101953 8.62311e-007 -0.887108 0.658484 0 
-0.101351 -0.0601609 0.0530747 -5.1669e-013 7.91577e-008 -5.10905e-006 0 -0 0 0 -0 0 0 -0 0 -0.713264 0.291267 2.94837e-013 7.34778 -34.8947 13.4425 -11.5824 -31.1618 -106.515 -2.08706 -6.7059 -7.73986 -27.5605 -21.5864 106.421 -7.48048 -7.22872 0.359187 -7.00922 -0.766388 -1.05378 4.72541 -4.46271 -1.39298 -3.41729 8.71841 0.0688695 -13.7112 -8.22532 12.9011 1.57409 -20.5968 -30.2417 -7.1101 35.2493 12.6918 11.1688 31.0234 105.063 -2.20097 6.1207 7.11429 35.6336 39.7005 102.081 14.7926 11.7911 -10.1536 26.0543 10.0097 13.4824 -13.0539 25.0835 16.8312 15.785 -17.144 19.179 38.4058 -0.578127 -29.0369 16.712 54.241 -34.4086 0.875052 -0.658017 -0.0100502 0.0240216 -0.899016 0.658099 0 0.886458 -0.658015 -0.0101812 1.18931e-006 -0.886401 0.658099 0 
-0.101328 -0.0601603 0.0530211 -1.01565e-012 7.89422e-008 -5.10905e-006 0 -0 0 0 -0 0 0 -0 0 -0.71326 0.291218 -2.00907e-012 7.34778 -34.8947 13.4425 -11.5824 -31.1618 -106.515 -2.08706 -6.7059 -7.73986 -27.5605 -21.5864 106.421 -7.48048 -7.22872 0.359187 -7.00922 -0.766388 -1.05378 4.72541 -4.46271 -1.39298 -3.41729 8.71841 0.0688695 -13.7112 -8.22532 12.9011 1.57409 -20.5968 -30.2417 -7.05507 35.2673 12.5042 11.1563 31.0121 104.772 -2.22206 5.89678 6.91467 41.7464 30.7496 89.7851 15.1354 13.5288 -2.01903 8.74108 15.9329 15.4408 -4.35869 12.3627 16.2722 15.7592 -3.82321 16.885 25.5238 4.08473 -8.30913 22.2018 42.2598 -28.4421 0.871676 -0.659516 -0.0100342 0.0240216 -0.89564 0.659597 0 0.883081 -0.659514 -0.0101655 2.41484e-006 -0.883025 0.659597 0 
-0.101325 -0.0601597 0.0529801 -5.8013e-013 7.85509e-008 -5.10906e-006 0 -0 0 0 -0 0 0 -0 0 -0.713255 0.291138 -2.18394e-014 7.34778 -34.8947 13.4425 -11.5824 -31.1618 -106.515 -2.08706 -6.7059 -7.73986 -27.5605 -21.5864 106.421 -7.48048 -7.22872 0.359187 -7.00922 -0.766388 -1.05378 4.72541 -4.46271 -1.39298 -3.41729 8.71841 0.0688695 -13.7112 -8.22532 12.9011 1.57409 -20.5968 -30.2417 -7.00019 35.2557 12.5488 11.2884 31.0321 104.409 -2.17407 5.64963 6.65475 40.5793 50.6313 101.328 16.94 15.7525 -5.44586 33.7944 22.986 24.5026 -8.88631 35.579 30.7306 26.0912 -14.4778 27.8892 61.4298 6.24059 -33.3067 7.0263 110.373 -27.3544 0.869093 -0.659661 -0.0100067 0.0240216 -0.893057 0.659742 0 0.880498 -0.659659 -0.010138 1.2376e-006 -0.880441 0.659742 0 
